<svg xmlns="http://www.w3.org/2000/svg" xmlns:xlink="http://www.w3.org/1999/xlink" width="303.137" height="131.12" viewBox="0 0 303.137 131.12">
  <defs>
    <style>
      .cls-1 {
        fill: #0d0736;
      }

      .cls-2 {
        fill: url(#linear-gradient);
      }

      .cls-3 {
        fill: #00b0ff;
      }

      .cls-4 {
        fill: url(#linear-gradient-2);
      }

      .cls-5 {
        fill: #ff00e5;
      }
    </style>
    <linearGradient id="linear-gradient" y1="0.5" x2="1" y2="0.5" gradientUnits="objectBoundingBox">
      <stop offset="0" stop-color="#2057ff"/>
      <stop offset="1" stop-color="#00b0ff"/>
    </linearGradient>
    <linearGradient id="linear-gradient-2" x1="1" y1="0.5" x2="0" y2="0.5" gradientUnits="objectBoundingBox">
      <stop offset="0" stop-color="#b500ac"/>
      <stop offset="1" stop-color="#ff00e5"/>
    </linearGradient>
  </defs>
  <g id="Group_51" data-name="Group 51" transform="translate(0)">
    <g id="Group_24" data-name="Group 24" transform="translate(99.877 36.075)">
      <path id="Path_25" data-name="Path 25" class="cls-1" d="M222.086,560.694V511.662a3.712,3.712,0,0,1,3.645-3.738h7.151a3.459,3.459,0,0,1,2.609,1.083,3.706,3.706,0,0,1,1.056,2.635v49.032a3.517,3.517,0,0,1-1.1,2.615,3.6,3.6,0,0,1-2.589,1.083H225.73a3.556,3.556,0,0,1-2.569-1.042A3.433,3.433,0,0,1,222.086,560.694Z" transform="translate(-222.083 -506.667)"/>
      <path id="Path_26" data-name="Path 26" class="cls-1" d="M270.857,560.656V511.624a3.768,3.768,0,0,1,1.036-2.635,3.383,3.383,0,0,1,2.549-1.1h29.3q23.244,0,23.224,21.962t-23.224,21.962h-18.4v8.867a3.537,3.537,0,0,1-1.056,2.615,3.441,3.441,0,0,1-2.549,1.083h-7.21a3.685,3.685,0,0,1-3.665-3.718Zm14.48-20.021h13.942a17.676,17.676,0,0,0,9.8-2.227c2.231-1.471,3.326-4.331,3.326-8.581s-1.1-7.109-3.326-8.581a17.677,17.677,0,0,0-9.8-2.227H285.337Z" transform="translate(-245.36 -506.65)"/>
      <path id="Path_27" data-name="Path 27" class="cls-1" d="M381.9,564.288a2,2,0,0,1-2.151-1.777,3.253,3.253,0,0,1,.8-1.921l19.36-25.333-18.244-23.719a3.145,3.145,0,0,1-.8-1.921c0-1.205.7-1.818,2.111-1.818h8.246a8.39,8.39,0,0,1,6.732,3.739l10.517,13.79,10.516-13.708a8.414,8.414,0,0,1,6.732-3.739h8.246c1.414,0,2.111.613,2.111,1.818a3.291,3.291,0,0,1-.8,1.921l-18.244,23.719,19.36,25.333a2.95,2.95,0,0,1,.8,1.655,2.085,2.085,0,0,1-.14.9,1.982,1.982,0,0,1-1.992,1.144H426.9a8.331,8.331,0,0,1-6.692-3.7L408.493,545.35l-11.712,15.322a8.331,8.331,0,0,1-6.692,3.7Z" transform="translate(-297.331 -506.61)"/>
      <path id="Path_28" data-name="Path 28" class="cls-1" d="M546.551,557.472q-7.867,7.049-23.044,7.069t-23.045-7.069Q492.495,550.4,492.495,535t7.967-22.371q7.847-7.049,23.045-7.048t23.044,7.048q7.868,7.048,7.847,22.371T546.551,557.472Zm-10.5-36.467q-3.983-4.719-12.548-4.719t-12.548,4.719q-3.983,4.72-3.984,14.076c0,6.251,1.295,10.93,3.984,14.076s6.772,4.7,12.548,4.7,9.959-1.573,12.548-4.7,3.884-7.825,3.884-14.076S538.644,524.152,536.054,521.005Z" transform="translate(-351.138 -505.581)"/>
    </g>
    <g id="Group_25" data-name="Group 25" transform="translate(24.219 42.922)">
      <path id="Path_29" data-name="Path 29" class="cls-2" d="M111.381,643.076l7.23,7.478,7.15-7.3a10.852,10.852,0,0,0,.015-15.072l-.015-.016-14.529-14.934A21.618,21.618,0,0,0,111.381,643.076Z" transform="translate(-90.704 -562.357)"/>
      <path id="Path_30" data-name="Path 30" class="cls-3" d="M83.4,584.063,98.028,599.07a21.618,21.618,0,0,1-.148-29.845c.052-.055.1-.115.148-.169l16.3-16.724,11.159-11.43a10.869,10.869,0,0,0,.008-15.095l-7.284-7.456L99.39,537.661,83.366,554.113A21.607,21.607,0,0,0,83.4,584.063Z" transform="translate(-77.351 -518.351)"/>
    </g>
    <g id="Group_26" data-name="Group 26" transform="translate(0 0)">
      <path id="Path_31" data-name="Path 31" class="cls-4" d="M73.471,445.8l-7.213-7.5-7.167,7.32a10.852,10.852,0,0,0-.015,15.071l.015.016,14.529,14.935A21.618,21.618,0,0,0,73.471,445.8Z" transform="translate(-42.961 -438.301)"/>
      <path id="Path_32" data-name="Path 32" class="cls-5" d="M76.161,467.289,61.531,452.282a21.618,21.618,0,0,1,.148,29.845c-.052.055-.1.115-.148.169l-16.3,16.724L34.073,510.443a10.869,10.869,0,0,0-.009,15.095l7.285,7.456,18.82-19.3,16.023-16.452A21.607,21.607,0,0,0,76.161,467.289Z" transform="translate(-31.021 -444.786)"/>
    </g>
  </g>
</svg>
